<?xml version="1.0" encoding="iso-8859-1"?>
<!-- Generator: Adobe Illustrator 19.0.0, SVG Export Plug-In . SVG Version: 6.00 Build 0)  -->
<svg version="1.1" id="Layer_1" xmlns="http://www.w3.org/2000/svg" xmlns:xlink="http://www.w3.org/1999/xlink" x="0px" y="0px"
	 viewBox="0 0 504.107 504.107" style="enable-background:new 0 0 504.107 504.107;" xml:space="preserve">
<path style="fill:#FFE079;" d="M380.053,252.213c0,37.547-16.213,70.827-40.96,93.867H165.867c-25.6-23.04-40.96-56.32-40.96-93.867
	c0-70.827,57.173-128,128-128S380.053,181.387,380.053,252.213"/>
<path style="fill:#51565F;" d="M414.187,503.947H243.52c-2.56,0-4.267-1.707-4.267-4.267c0-2.56,1.707-4.267,4.267-4.267h170.667
	c2.56,0,4.267,1.707,4.267,4.267C418.453,502.24,416.747,503.947,414.187,503.947z M209.387,503.947h-153.6
	c-2.56,0-4.267-1.707-4.267-4.267c0-2.56,1.707-4.267,4.267-4.267h153.6c2.56,0,4.267,1.707,4.267,4.267
	C213.653,502.24,211.947,503.947,209.387,503.947z M380.053,452.747H192.32c-2.56,0-4.267-1.707-4.267-4.267
	c0-2.56,1.707-4.267,4.267-4.267h187.733c2.56,0,4.267,1.707,4.267,4.267C384.32,451.04,382.613,452.747,380.053,452.747z
	 M158.187,452.747H89.92c-2.56,0-4.267-1.707-4.267-4.267c0-2.56,1.707-4.267,4.267-4.267h68.267c2.56,0,4.267,1.707,4.267,4.267
	C162.453,451.04,160.747,452.747,158.187,452.747z M465.387,401.547H277.653c-2.56,0-4.267-1.707-4.267-4.267
	s1.707-4.267,4.267-4.267h187.733c2.56,0,4.267,1.707,4.267,4.267S467.947,401.547,465.387,401.547z M243.52,401.547H55.787
	c-2.56,0-4.267-1.707-4.267-4.267s1.707-4.267,4.267-4.267H243.52c2.56,0,4.267,1.707,4.267,4.267S246.08,401.547,243.52,401.547z
	 M499.52,350.347h-358.4c-2.56,0-4.267-1.707-4.267-4.267s1.707-4.267,4.267-4.267h358.4c2.56,0,4.267,1.707,4.267,4.267
	S502.08,350.347,499.52,350.347z M106.987,350.347H4.587c-2.56,0-4.267-1.707-4.267-4.267s1.707-4.267,4.267-4.267h102.4
	c2.56,0,4.267,1.707,4.267,4.267S109.547,350.347,106.987,350.347z M139.413,317.067c-1.707,0-3.413-0.853-3.413-2.56
	c-10.24-18.773-15.36-40.96-15.36-62.293c0-72.533,59.733-132.267,132.267-132.267s132.267,59.733,132.267,132.267
	c0,21.333-5.12,42.667-15.36,61.44c-0.853,1.707-3.413,2.56-5.973,1.707c-1.707-0.853-2.56-3.413-1.707-5.973
	c9.387-17.92,14.507-37.547,14.507-58.027c0-68.267-55.467-123.733-123.733-123.733s-123.733,55.467-123.733,123.733
	c0,20.48,5.12,40.107,14.507,58.027c0.853,1.707,0,4.267-1.707,5.973C140.267,316.213,139.413,317.067,139.413,317.067z
	 M482.453,256.48h-68.267c-2.56,0-4.267-1.707-4.267-4.267s1.707-4.267,4.267-4.267h68.267c2.56,0,4.267,1.707,4.267,4.267
	S485.013,256.48,482.453,256.48z M89.92,256.48H21.653c-2.56,0-4.267-1.707-4.267-4.267s1.707-4.267,4.267-4.267H89.92
	c2.56,0,4.267,1.707,4.267,4.267S92.48,256.48,89.92,256.48z M335.68,213.813c-1.707,0-3.413-0.853-3.413-2.56
	c-6.827-13.653-17.92-25.6-30.72-34.987c-1.707-1.707-2.56-4.267-0.853-5.973c1.707-1.707,4.267-2.56,5.973-0.853
	c14.507,9.387,26.453,22.187,34.133,37.547c0.853,1.707,0,4.267-1.707,5.973C337.387,213.813,336.533,213.813,335.68,213.813z
	 M402.24,194.187c-1.707,0-3.413-0.853-4.267-2.56c-0.853-2.56,0-4.267,2.56-5.973l31.573-12.8c2.56-0.853,4.267,0,5.973,2.56
	c0.853,2.56,0,4.267-2.56,5.973l-31.573,12.8C403.093,194.187,402.24,194.187,402.24,194.187z M101.867,194.187
	c-0.853,0-0.853,0-1.707,0l-31.573-12.8c-2.56-0.853-3.413-3.413-2.56-5.973c0.853-2.56,3.413-3.413,5.973-2.56l31.573,12.8
	c2.56,0.853,3.413,3.413,2.56,5.973C105.28,193.333,103.573,194.187,101.867,194.187z M464.533,168.587
	c-1.707,0-3.413-0.853-4.267-2.56c-0.853-2.56,0-4.267,2.56-5.973l34.987-14.507c2.56-0.853,4.267,0,5.973,2.56
	c0.853,2.56,0,4.267-2.56,5.973l-34.987,14.507C466.24,168.587,465.387,168.587,464.533,168.587z M39.573,168.587
	c-0.853,0-0.853,0-1.707,0L2.88,154.08c-2.56-0.853-3.413-3.413-2.56-5.973c0.853-2.56,3.413-3.413,5.973-2.56l34.987,14.507
	c2.56,0.853,3.413,3.413,2.56,5.973C42.133,167.733,41.28,168.587,39.573,168.587z M369.813,142.987c-0.853,0-2.56,0-3.413-0.853
	c-1.707-1.707-1.707-4.267,0-5.973l42.667-41.813c1.707-1.707,4.267-1.707,5.973,0c1.707,1.707,1.707,4.267,0,5.973l-42.667,41.813
	C371.52,142.987,370.667,142.987,369.813,142.987z M140.267,142.987c-0.853,0-2.56,0-3.413-0.853l-48.64-48.64
	c-1.707-1.707-1.707-4.267,0-5.973s4.267-1.707,5.973,0l48.64,48.64c1.707,1.707,1.707,4.267,0,5.973
	C142.827,142.987,141.12,142.987,140.267,142.987z M314.347,106.293c-0.853,0-0.853,0-1.707,0c-2.56-0.853-3.413-3.413-2.56-5.973
	l12.8-31.573c0.853-2.56,3.413-3.413,5.973-2.56s3.413,3.413,2.56,5.973l-12.8,31.573
	C317.76,105.44,316.053,106.293,314.347,106.293z M189.76,106.293c-1.707,0-3.413-0.853-4.267-2.56l-12.8-31.573
	c-0.853-2.56,0-4.267,2.56-5.973c2.56-0.853,4.267,0,5.973,2.56l12.8,31.573c0.853,2.56,0,4.267-2.56,5.973
	C191.467,106.293,190.613,106.293,189.76,106.293z M252.053,94.347c-2.56,0-4.267-1.707-4.267-4.267V30.347
	c0-2.56,1.707-4.267,4.267-4.267s4.267,1.707,4.267,4.267V90.08C256.32,92.64,254.613,94.347,252.053,94.347z M164.16,44
	c-1.707,0-3.413-0.853-4.267-2.56L145.387,6.453c-0.853-2.56,0-4.267,2.56-5.973c2.56-0.853,4.267,0,5.973,2.56l14.507,34.987
	c0.853,2.56,0,4.267-2.56,5.973C165.013,43.147,164.16,44,164.16,44z M339.947,44c-0.853,0-0.853,0-1.707,0
	c-2.56-0.853-3.413-3.413-2.56-5.973L350.187,3.04c0.853-2.56,3.413-3.413,5.973-2.56s3.413,3.413,2.56,5.973L344.213,41.44
	C343.36,42.293,341.653,44,339.947,44z"/>
<g>
</g>
<g>
</g>
<g>
</g>
<g>
</g>
<g>
</g>
<g>
</g>
<g>
</g>
<g>
</g>
<g>
</g>
<g>
</g>
<g>
</g>
<g>
</g>
<g>
</g>
<g>
</g>
<g>
</g>
</svg>
