<?xml version="1.0" encoding="iso-8859-1"?>
<!-- Generator: Adobe Illustrator 19.0.0, SVG Export Plug-In . SVG Version: 6.00 Build 0)  -->
<svg version="1.1" id="Capa_1" xmlns="http://www.w3.org/2000/svg" xmlns:xlink="http://www.w3.org/1999/xlink" x="0px" y="0px"
	 viewBox="0 0 59.947 59.947" style="enable-background:new 0 0 59.947 59.947;" xml:space="preserve">
<g>
	<path d="M37.405,28.617c1.075-0.253,1.742-1.33,1.489-2.405c-0.55-2.34-1.979-4.326-4.023-5.591
		c-0.586-0.363-1.206-0.646-1.842-0.863c0.546-4.164,4.109-7.391,8.419-7.391c4.202,0,7.692,3.067,8.371,7.079
		c-4.43,0.558-7.871,4.342-7.871,8.921c0,1.104,0.896,2,2,2s2-0.896,2-2c0-2.757,2.243-5,5-5s5,2.243,5,5c0,1.104,0.896,2,2,2
		s2-0.896,2-2c0-3.928-2.534-7.268-6.05-8.493c-0.509-6.429-5.892-11.507-12.45-11.507c-3.352,0-6.388,1.335-8.633,3.491
		C30.039,7.909,25.601,5.58,20.74,5.58c-8.157,0-14.793,6.636-14.793,14.793c0,4.097,1.652,7.893,4.579,10.671
		c-3.655,0.526-6.938,2.619-8.831,5.895c-3.403,5.887-1.521,13.569,4.195,17.125c0.329,0.205,0.694,0.302,1.055,0.302
		c0.668,0,1.321-0.335,1.7-0.944c0.583-0.938,0.296-2.171-0.642-2.755C4.1,48.24,2.824,42.979,5.158,38.942
		c1.565-2.706,4.56-4.226,7.71-4.031c0.49,1.67,1.466,3.216,2.908,4.404c0.373,0.307,0.823,0.456,1.271,0.456
		c0.577,0,1.149-0.249,1.545-0.729c0.702-0.853,0.58-2.113-0.272-2.815c-2.128-1.752-2.434-4.91-0.681-7.038
		c0.903-1.097,2.192-1.72,3.548-1.803c-0.097,0.963-0.047,1.956,0.187,2.95c0.217,0.921,1.038,1.542,1.945,1.542
		c0.152,0,0.306-0.018,0.46-0.054c1.075-0.253,1.742-1.33,1.489-2.405c-0.306-1.3-0.087-2.642,0.616-3.777
		c0.703-1.136,1.806-1.93,3.106-2.235c1.302-0.306,2.642-0.087,3.777,0.616c1.136,0.703,1.93,1.806,2.235,3.106
		C35.253,28.204,36.332,28.868,37.405,28.617z"/>
	<path d="M54.773,44.616c-0.817-4.127-4.463-7.25-8.826-7.25c-4.962,0-9,4.038-9,9c0,1.104,0.896,2,2,2s2-0.896,2-2
		c0-2.757,2.243-5,5-5c2.191,0,4.037,1.426,4.711,3.392c-2.738,0.951-4.711,3.55-4.711,6.608c0,1.104,0.896,2,2,2s2-0.896,2-2
		c0-1.654,1.346-3,3-3s3,1.346,3,3c0,1.104,0.896,2,2,2s2-0.896,2-2C59.947,48.139,57.749,45.423,54.773,44.616z"/>
</g>
<g>
</g>
<g>
</g>
<g>
</g>
<g>
</g>
<g>
</g>
<g>
</g>
<g>
</g>
<g>
</g>
<g>
</g>
<g>
</g>
<g>
</g>
<g>
</g>
<g>
</g>
<g>
</g>
<g>
</g>
</svg>
